<svg width="40" height="41" viewBox="0 0 40 41" fill="none" xmlns="http://www.w3.org/2000/svg">
<rect y="0.109375" width="40" height="40" rx="20" fill="white"/>
<path d="M30.0014 25.0295V28.0295C30.0025 28.308 29.9455 28.5836 29.8339 28.8388C29.7223 29.094 29.5587 29.3231 29.3535 29.5113C29.1483 29.6996 28.906 29.843 28.6421 29.9322C28.3783 30.0214 28.0988 30.0545 27.8214 30.0295C24.7442 29.6951 21.7884 28.6436 19.1914 26.9595C16.7752 25.4241 14.7267 23.3756 13.1914 20.9595C11.5014 18.3507 10.4496 15.3805 10.1214 12.2895C10.0964 12.0129 10.1293 11.7342 10.2179 11.4711C10.3065 11.208 10.449 10.9662 10.6362 10.7611C10.8234 10.556 11.0512 10.3922 11.3052 10.28C11.5592 10.1678 11.8337 10.1097 12.1114 10.1095H15.1114C15.5967 10.1047 16.0672 10.2766 16.4352 10.593C16.8031 10.9095 17.0435 11.3489 17.1114 11.8295C17.238 12.7895 17.4728 13.7322 17.8114 14.6395C17.9459 14.9974 17.9751 15.3864 17.8953 15.7604C17.8155 16.1343 17.6303 16.4776 17.3614 16.7495L16.0914 18.0195C17.515 20.523 19.5879 22.5959 22.0914 24.0195L23.3614 22.7495C23.6333 22.4806 23.9766 22.2953 24.3505 22.2156C24.7245 22.1358 25.1135 22.1649 25.4714 22.2995C26.3787 22.638 27.3213 22.8728 28.2814 22.9995C28.7672 23.068 29.2108 23.3127 29.5279 23.687C29.8451 24.0613 30.0136 24.539 30.0014 25.0295Z" fill="#375776"/>
</svg>
